<?xml version="1.0" encoding="utf-8"?>
<!-- Generator: Adobe Illustrator 18.0.0, SVG Export Plug-In . SVG Version: 6.00 Build 0)  -->
<!DOCTYPE svg PUBLIC "-//W3C//DTD SVG 1.1//EN" "http://www.w3.org/Graphics/SVG/1.1/DTD/svg11.dtd">
<svg version="1.1" id="组_41_1_" xmlns="http://www.w3.org/2000/svg" xmlns:xlink="http://www.w3.org/1999/xlink" x="0px" y="0px"
	 viewBox="0 0 54.7 45.7" enable-background="new 0 0 54.7 45.7" xml:space="preserve">
<g id="椭圆_20">
	<g>
		<circle fill-rule="evenodd" clip-rule="evenodd" fill="#00B6DD" cx="26.2" cy="39" r="3.7"/>
	</g>
</g>
<g id="椭圆_20_拷贝">
	<g>
		<circle fill-rule="evenodd" clip-rule="evenodd" fill="#7FEDFC" cx="25.9" cy="37.9" r="1.1"/>
	</g>
</g>
<g id="椭圆_19">
	<g>
		<path fill="#13BAF4" d="M26.2,33.2c3.2,0,5.7,2.6,5.7,5.7c0,3.2-2.6,5.7-5.7,5.7s-5.7-2.6-5.7-5.7C20.5,35.8,23.1,33.2,26.2,33.2
			 M26.2,32.2c-3.7,0-6.7,3-6.7,6.7c0,3.7,3,6.7,6.7,6.7s6.7-3,6.7-6.7C33,35.3,30,32.2,26.2,32.2L26.2,32.2z"/>
	</g>
</g>
<g id="素彩网www.sc115.com_056">
	<g>
		<path fill="#007EFF" d="M51.4,0.3H3.1c-1.6,0-3,1.3-3,3v17.2c0,1.6,1.3,3,3,3h16.4l6.8,6.9l6.8-6.9h18.2c1.6,0,3-1.3,3-3V3.3
			C54.4,1.7,53,0.3,51.4,0.3z"/>
	</g>
</g>
</svg>
